<mxfile host="app.diagrams.net" agent="Mozilla/5.0 (Windows NT 10.0; Win64; x64) AppleWebKit/537.36 (KHTML, like Gecko) Chrome/136.0.0.0 Safari/537.36" version="27.0.5">
  <diagram name="Seite-1" id="vdwy2ADWtqlWa-Q7clY7">
    <mxGraphModel dx="1368" dy="824" grid="1" gridSize="10" guides="1" tooltips="1" connect="1" arrows="1" fold="1" page="1" pageScale="1" pageWidth="827" pageHeight="1169" math="0" shadow="0">
      <root>
        <mxCell id="0" />
        <mxCell id="1" parent="0" />
        <mxCell id="JgduJuPoJpBLt58f9y2H-8" style="edgeStyle=orthogonalEdgeStyle;rounded=0;orthogonalLoop=1;jettySize=auto;html=1;exitX=0.5;exitY=0.5;exitDx=0;exitDy=0;exitPerimeter=0;" edge="1" parent="1" source="JgduJuPoJpBLt58f9y2H-1" target="JgduJuPoJpBLt58f9y2H-7">
          <mxGeometry relative="1" as="geometry" />
        </mxCell>
        <mxCell id="JgduJuPoJpBLt58f9y2H-42" style="edgeStyle=orthogonalEdgeStyle;rounded=0;orthogonalLoop=1;jettySize=auto;html=1;" edge="1" parent="1" source="JgduJuPoJpBLt58f9y2H-1" target="JgduJuPoJpBLt58f9y2H-12">
          <mxGeometry relative="1" as="geometry">
            <Array as="points">
              <mxPoint x="115" y="575" />
            </Array>
          </mxGeometry>
        </mxCell>
        <mxCell id="JgduJuPoJpBLt58f9y2H-1" value="Actor" style="shape=umlActor;verticalLabelPosition=bottom;verticalAlign=top;html=1;outlineConnect=0;" vertex="1" parent="1">
          <mxGeometry x="100" y="385" width="30" height="60" as="geometry" />
        </mxCell>
        <mxCell id="JgduJuPoJpBLt58f9y2H-2" value="" style="rounded=1;arcSize=10;dashed=0;fillColor=none;gradientColor=none;strokeWidth=2;" vertex="1" parent="1">
          <mxGeometry x="250" y="260" width="1300" height="1010" as="geometry" />
        </mxCell>
        <mxCell id="JgduJuPoJpBLt58f9y2H-3" value="" style="dashed=0;html=1;shape=mxgraph.aws3.cloud;fillColor=#F58536;gradientColor=none;dashed=0;" vertex="1" parent="1">
          <mxGeometry x="270" y="240" width="52" height="36" as="geometry" />
        </mxCell>
        <mxCell id="JgduJuPoJpBLt58f9y2H-6" value="eu-west-1" style="sketch=0;outlineConnect=0;gradientColor=none;html=1;whiteSpace=wrap;fontSize=12;fontStyle=0;shape=mxgraph.aws4.group;grIcon=mxgraph.aws4.group_region;strokeColor=light-dark(#879196,#15774C);fillColor=none;verticalAlign=top;align=left;spacingLeft=30;fontColor=#879196;dashed=1;" vertex="1" parent="1">
          <mxGeometry x="350" y="330" width="979" height="720" as="geometry" />
        </mxCell>
        <mxCell id="JgduJuPoJpBLt58f9y2H-7" value="crm-gia-le-formular" style="sketch=0;outlineConnect=0;fontColor=#232F3E;gradientColor=none;strokeColor=#ffffff;fillColor=#232F3E;dashed=0;verticalLabelPosition=middle;verticalAlign=bottom;align=center;html=1;whiteSpace=wrap;fontSize=10;fontStyle=1;spacing=3;shape=mxgraph.aws4.productIcon;prIcon=mxgraph.aws4.s3;" vertex="1" parent="1">
          <mxGeometry x="414" y="360" width="80" height="110" as="geometry" />
        </mxCell>
        <mxCell id="JgduJuPoJpBLt58f9y2H-43" style="edgeStyle=orthogonalEdgeStyle;rounded=0;orthogonalLoop=1;jettySize=auto;html=1;" edge="1" parent="1" source="JgduJuPoJpBLt58f9y2H-10" target="JgduJuPoJpBLt58f9y2H-24">
          <mxGeometry relative="1" as="geometry" />
        </mxCell>
        <mxCell id="JgduJuPoJpBLt58f9y2H-10" value="PDF-generator" style="sketch=0;outlineConnect=0;fontColor=#232F3E;gradientColor=none;strokeColor=#ffffff;fillColor=#232F3E;dashed=0;verticalLabelPosition=middle;verticalAlign=bottom;align=center;html=1;whiteSpace=wrap;fontSize=10;fontStyle=1;spacing=3;shape=mxgraph.aws4.productIcon;prIcon=mxgraph.aws4.lambda;" vertex="1" parent="1">
          <mxGeometry x="580" y="525" width="80" height="100" as="geometry" />
        </mxCell>
        <mxCell id="JgduJuPoJpBLt58f9y2H-20" style="edgeStyle=orthogonalEdgeStyle;rounded=0;orthogonalLoop=1;jettySize=auto;html=1;" edge="1" parent="1" source="JgduJuPoJpBLt58f9y2H-12" target="JgduJuPoJpBLt58f9y2H-10">
          <mxGeometry relative="1" as="geometry">
            <mxPoint x="550" y="570" as="targetPoint" />
          </mxGeometry>
        </mxCell>
        <mxCell id="JgduJuPoJpBLt58f9y2H-12" value="crm-gia-le-API" style="sketch=0;outlineConnect=0;fontColor=#232F3E;gradientColor=none;strokeColor=#ffffff;fillColor=#232F3E;dashed=0;verticalLabelPosition=middle;verticalAlign=bottom;align=center;html=1;whiteSpace=wrap;fontSize=10;fontStyle=1;spacing=3;shape=mxgraph.aws4.productIcon;prIcon=mxgraph.aws4.api_gateway;" vertex="1" parent="1">
          <mxGeometry x="420" y="520" width="80" height="110" as="geometry" />
        </mxCell>
        <mxCell id="JgduJuPoJpBLt58f9y2H-46" style="edgeStyle=orthogonalEdgeStyle;rounded=0;orthogonalLoop=1;jettySize=auto;html=1;" edge="1" parent="1" source="JgduJuPoJpBLt58f9y2H-22" target="JgduJuPoJpBLt58f9y2H-45">
          <mxGeometry relative="1" as="geometry" />
        </mxCell>
        <mxCell id="JgduJuPoJpBLt58f9y2H-22" value="crm-gia-le-archivDB" style="sketch=0;outlineConnect=0;fontColor=#232F3E;gradientColor=none;strokeColor=#ffffff;fillColor=#232F3E;dashed=0;verticalLabelPosition=middle;verticalAlign=bottom;align=center;html=1;whiteSpace=wrap;fontSize=10;fontStyle=1;spacing=3;shape=mxgraph.aws4.productIcon;prIcon=mxgraph.aws4.dynamodb;" vertex="1" parent="1">
          <mxGeometry x="720" y="660" width="80" height="110" as="geometry" />
        </mxCell>
        <mxCell id="JgduJuPoJpBLt58f9y2H-44" style="edgeStyle=orthogonalEdgeStyle;rounded=0;orthogonalLoop=1;jettySize=auto;html=1;" edge="1" parent="1" source="JgduJuPoJpBLt58f9y2H-24" target="JgduJuPoJpBLt58f9y2H-22">
          <mxGeometry relative="1" as="geometry" />
        </mxCell>
        <mxCell id="JgduJuPoJpBLt58f9y2H-24" value="crm-gia-le-archiv" style="sketch=0;outlineConnect=0;fontColor=#232F3E;gradientColor=none;strokeColor=#ffffff;fillColor=#232F3E;dashed=0;verticalLabelPosition=middle;verticalAlign=bottom;align=center;html=1;whiteSpace=wrap;fontSize=10;fontStyle=1;spacing=3;shape=mxgraph.aws4.productIcon;prIcon=mxgraph.aws4.s3;" vertex="1" parent="1">
          <mxGeometry x="720" y="522.5" width="80" height="105" as="geometry" />
        </mxCell>
        <mxCell id="JgduJuPoJpBLt58f9y2H-29" value="" style="verticalLabelPosition=bottom;verticalAlign=top;html=1;shape=mxgraph.basic.tick;fillColor=#60a917;fontColor=#ffffff;strokeColor=#2D7600;" vertex="1" parent="1">
          <mxGeometry x="450" y="320" width="80" height="90" as="geometry" />
        </mxCell>
        <mxCell id="JgduJuPoJpBLt58f9y2H-30" value="" style="verticalLabelPosition=bottom;verticalAlign=top;html=1;shape=mxgraph.basic.tick;fillColor=#60a917;fontColor=#ffffff;strokeColor=#2D7600;" vertex="1" parent="1">
          <mxGeometry x="460" y="450" width="80" height="90" as="geometry" />
        </mxCell>
        <mxCell id="JgduJuPoJpBLt58f9y2H-31" value="SNS" style="sketch=0;outlineConnect=0;fontColor=#232F3E;gradientColor=none;strokeColor=#ffffff;fillColor=#232F3E;dashed=0;verticalLabelPosition=middle;verticalAlign=bottom;align=center;html=1;whiteSpace=wrap;fontSize=10;fontStyle=1;spacing=3;shape=mxgraph.aws4.productIcon;prIcon=mxgraph.aws4.sns;" vertex="1" parent="1">
          <mxGeometry x="860" y="872.5" width="80" height="100" as="geometry" />
        </mxCell>
        <mxCell id="JgduJuPoJpBLt58f9y2H-41" style="edgeStyle=orthogonalEdgeStyle;rounded=0;orthogonalLoop=1;jettySize=auto;html=1;" edge="1" parent="1" source="JgduJuPoJpBLt58f9y2H-32" target="JgduJuPoJpBLt58f9y2H-31">
          <mxGeometry relative="1" as="geometry" />
        </mxCell>
        <mxCell id="JgduJuPoJpBLt58f9y2H-50" style="edgeStyle=orthogonalEdgeStyle;rounded=0;orthogonalLoop=1;jettySize=auto;html=1;" edge="1" parent="1" source="JgduJuPoJpBLt58f9y2H-32" target="JgduJuPoJpBLt58f9y2H-49">
          <mxGeometry relative="1" as="geometry" />
        </mxCell>
        <mxCell id="JgduJuPoJpBLt58f9y2H-32" value="crm-sendRechnung" style="sketch=0;outlineConnect=0;fontColor=#232F3E;gradientColor=none;strokeColor=#ffffff;fillColor=#232F3E;dashed=0;verticalLabelPosition=middle;verticalAlign=bottom;align=center;html=1;whiteSpace=wrap;fontSize=10;fontStyle=1;spacing=3;shape=mxgraph.aws4.productIcon;prIcon=mxgraph.aws4.lambda;" vertex="1" parent="1">
          <mxGeometry x="1050" y="865" width="80" height="115" as="geometry" />
        </mxCell>
        <mxCell id="JgduJuPoJpBLt58f9y2H-47" style="edgeStyle=orthogonalEdgeStyle;rounded=0;orthogonalLoop=1;jettySize=auto;html=1;" edge="1" parent="1" source="JgduJuPoJpBLt58f9y2H-45" target="JgduJuPoJpBLt58f9y2H-31">
          <mxGeometry relative="1" as="geometry" />
        </mxCell>
        <mxCell id="JgduJuPoJpBLt58f9y2H-45" value="AWS Lambda" style="sketch=0;outlineConnect=0;fontColor=#232F3E;gradientColor=none;strokeColor=#ffffff;fillColor=#232F3E;dashed=0;verticalLabelPosition=middle;verticalAlign=bottom;align=center;html=1;whiteSpace=wrap;fontSize=10;fontStyle=1;spacing=3;shape=mxgraph.aws4.productIcon;prIcon=mxgraph.aws4.lambda;" vertex="1" parent="1">
          <mxGeometry x="860" y="662.5" width="80" height="105" as="geometry" />
        </mxCell>
        <mxCell id="JgduJuPoJpBLt58f9y2H-49" value="Amazon Simple Email Service" style="sketch=0;outlineConnect=0;fontColor=#232F3E;gradientColor=none;strokeColor=#ffffff;fillColor=#232F3E;dashed=0;verticalLabelPosition=middle;verticalAlign=bottom;align=center;html=1;whiteSpace=wrap;fontSize=10;fontStyle=1;spacing=3;shape=mxgraph.aws4.productIcon;prIcon=mxgraph.aws4.simple_email_service;" vertex="1" parent="1">
          <mxGeometry x="1230" y="867.5" width="80" height="110" as="geometry" />
        </mxCell>
      </root>
    </mxGraphModel>
  </diagram>
</mxfile>
